<?xml version="1.0" encoding="utf-8"?>
<svg id="Layer_1" x="0px" y="0px" width="234px" height="40px" viewBox="-1.087 -0.932 30 40" xmlns="http://www.w3.org/2000/svg">
  <path d="M 20.217 19.955 L 17.317 22.855 C 17.517 23.155 17.717 23.555 17.817 23.955 L 15.717 23.955 C 15.417 23.355 14.717 22.955 14.017 22.955 C 12.917 22.955 12.017 23.855 12.017 24.955 C 12.017 26.055 12.917 26.955 14.017 26.955 C 14.717 26.955 15.417 26.555 15.717 25.955 L 17.817 25.955 C 17.417 27.655 15.817 28.955 13.917 28.955 C 13.117 28.955 12.317 28.655 11.717 28.255 L 10.317 29.655 C 11.317 30.455 12.617 30.955 14.017 30.955 C 14.717 30.955 15.317 30.855 15.917 30.655 L 17.417 32.155 C 16.417 32.655 15.217 32.955 14.017 32.955 C 11.517 32.955 9.217 31.755 7.717 29.955 L 10.617 27.055 C 10.117 26.455 9.917 25.755 9.917 24.955 C 9.917 22.755 11.717 20.955 13.917 20.955 C 14.717 20.955 15.517 21.255 16.117 21.655 L 17.517 20.255 C 16.517 19.455 15.217 18.955 13.817 18.955 C 13.117 18.955 12.517 19.055 11.917 19.255 L 10.417 17.755 C 11.417 17.255 12.617 16.955 13.817 16.955 C 16.417 16.955 18.717 18.155 20.217 19.955 Z M 25.917 24.955 C 25.917 31.555 20.517 36.955 13.917 36.955 C 7.317 36.955 1.917 31.555 1.917 24.955 C 1.917 19.455 5.617 14.855 10.517 13.455 L 10.517 2.955 L 8.517 2.955 L 8.517 0.955 L 12.517 0.955 L 12.517 15.055 C 10.617 15.255 8.817 16.055 7.417 17.255 L 10.317 20.155 C 8.917 21.255 7.917 22.955 7.917 24.955 C 7.917 25.655 8.017 26.255 8.217 26.855 L 6.717 28.355 C 6.217 27.355 5.917 26.155 5.917 24.955 C 5.917 23.055 6.617 21.255 7.717 19.855 L 6.317 18.455 C 4.817 20.155 3.917 22.455 3.917 24.955 C 3.917 30.455 8.417 34.955 14.017 34.955 C 16.417 34.955 18.717 34.155 20.417 32.655 L 17.517 29.755 C 18.917 28.655 19.917 26.955 19.917 24.955 C 19.917 24.255 19.817 23.655 19.617 23.055 L 21.117 21.555 C 21.617 22.555 21.917 23.755 21.917 24.955 C 21.917 26.855 21.217 28.655 20.117 30.055 L 21.517 31.455 C 23.017 29.755 23.917 27.455 23.917 24.955 C 23.917 19.855 20.117 15.755 15.217 15.055 L 15.217 0.955 L 19.217 0.955 L 19.217 2.955 L 17.217 2.955 L 17.217 13.455 C 22.217 14.855 25.917 19.455 25.917 24.955 Z"/>
</svg>